<svg width="237" height="148" viewBox="0 0 237 148" fill="none" xmlns="http://www.w3.org/2000/svg">
<rect width="237" height="148" rx="12" fill="black"/>
<path d="M109 30.5C108.724 30.5 108.5 30.7239 108.5 31V31.982C108.5 32.2651 108.735 32.4915 109.018 32.4829C113.676 32.3411 116.454 32.6148 119.424 35.3934C120.149 36.0716 120.496 37.0498 120.49 38.0425L120.011 110.359C120.004 111.41 119.601 112.441 118.763 113.076C116.799 114.565 113.986 115.78 110.557 115.55C110.26 115.53 110 115.761 110 116.059V117.5H152.5C152.776 117.5 153 117.276 153 117V115.944C153 115.691 152.808 115.477 152.556 115.447C145.632 114.621 142 113.938 142 111V78.9331C142 78.6483 142.066 78.3674 142.194 78.1127C142.798 76.9032 144.459 76.7414 145.286 77.8114L169 108.5C171.5 113 170 115 163.5 115.5V117.5L208.495 117.994C208.773 117.998 209 117.773 209 117.494V116C209 115.724 208.776 115.5 208.5 115.5H202.5L160.817 64.8844C160.642 64.6719 160.671 64.3578 160.883 64.1819L187 42.5C193.848 37.1198 196.867 32.6964 204.297 32.5064C204.574 32.4993 204.8 32.2761 204.8 32V31C204.8 30.7239 204.576 30.5 204.3 30.5H171V32.5C174.815 32.1821 177.619 33.077 179.027 34.9278C180.699 37.1245 178.844 40.0057 176.762 41.8176L142.36 71.7516C142.032 72.0375 141.52 71.7957 141.532 71.3603L142.453 38.6675C142.484 37.5765 142.776 36.4832 143.494 35.6612C145.44 33.4341 147.802 32.9071 152 32.5V31C152 30.7239 151.776 30.5 151.5 30.5H109Z" fill="white"/>
<path d="M36 57.5L37.9663 30.4637C37.9853 30.2024 38.2029 30 38.465 30H106.104C106.495 30 106.735 30.4295 106.529 30.7626L57 111C88 114 104 108.5 108 86.5H112L109 117.5H28.9009C28.5085 117.5 28.269 117.069 28.4767 116.735L77.5826 37.9715C77.9901 37.3179 77.5218 36.4686 76.7517 36.4502C49.1287 35.7906 42.8034 41.8749 39 57.5H36Z" fill="white"/>
<path d="M109 30.5C108.724 30.5 108.5 30.7239 108.5 31V31.982C108.5 32.2651 108.735 32.4915 109.018 32.4829C113.676 32.3411 116.454 32.6148 119.424 35.3934C120.149 36.0716 120.496 37.0498 120.49 38.0425L120.011 110.359C120.004 111.41 119.601 112.441 118.763 113.076C116.799 114.565 113.986 115.78 110.557 115.55C110.26 115.53 110 115.761 110 116.059V117.5H152.5C152.776 117.5 153 117.276 153 117V115.944C153 115.691 152.808 115.477 152.556 115.447C145.632 114.621 142 113.938 142 111V78.9331C142 78.6483 142.066 78.3674 142.194 78.1127C142.798 76.9032 144.459 76.7414 145.286 77.8114L169 108.5C171.5 113 170 115 163.5 115.5V117.5L208.495 117.994C208.773 117.998 209 117.773 209 117.494V116C209 115.724 208.776 115.5 208.5 115.5H202.5L160.817 64.8844C160.642 64.6719 160.671 64.3578 160.883 64.1819L187 42.5C193.848 37.1198 196.867 32.6964 204.297 32.5064C204.574 32.4993 204.8 32.2761 204.8 32V31C204.8 30.7239 204.576 30.5 204.3 30.5H171V32.5C174.815 32.1821 177.619 33.077 179.027 34.9278C180.699 37.1245 178.844 40.0057 176.762 41.8176L142.36 71.7516C142.032 72.0375 141.52 71.7957 141.532 71.3603L142.453 38.6675C142.484 37.5765 142.776 36.4832 143.494 35.6612C145.44 33.4341 147.802 32.9071 152 32.5V31C152 30.7239 151.776 30.5 151.5 30.5H109Z" stroke="white"/>
<path d="M36 57.5L37.9663 30.4637C37.9853 30.2024 38.2029 30 38.465 30H106.104C106.495 30 106.735 30.4295 106.529 30.7626L57 111C88 114 104 108.5 108 86.5H112L109 117.5H28.9009C28.5085 117.5 28.269 117.069 28.4767 116.735L77.5826 37.9715C77.9901 37.3179 77.5218 36.4686 76.7517 36.4502C49.1287 35.7906 42.8034 41.8749 39 57.5H36Z" stroke="white"/>
</svg>
